<?xml version="1.0" encoding="UTF-8"?>
<!DOCTYPE svg PUBLIC "-//W3C//DTD SVG 1.0//EN" "http://www.w3.org/TR/2001/REC-SVG-20010904/DTD/svg10.dtd">
<!-- Creator: CorelDRAW -->
<svg xmlns="http://www.w3.org/2000/svg" xml:space="preserve" width="100.69mm" height="105.423mm" version="1.0" style="shape-rendering:geometricPrecision; text-rendering:geometricPrecision; image-rendering:optimizeQuality; fill-rule:evenodd; clip-rule:evenodd"
viewBox="0 0 16240.74 17004.1"
 xmlns:xlink="http://www.w3.org/1999/xlink"
 xmlns:xodm="http://www.corel.com/coreldraw/odm/2003">
 <defs>
  <style type="text/css">
   <![CDATA[
    .fil1 {fill:#003399}
    .fil0 {fill:#EB5F2A;fill-rule:nonzero}
   ]]>
  </style>
 </defs>
 <g id="Warstwa_x0020_1">
  <metadata id="CorelCorpID_0Corel-Layer"/>
  <path class="fil0" d="M-0 16978.37l1347.58 0c656.11,0 978.26,-420.38 978.26,-1426.18 0,-813.24 -196.42,-1449.72 -978.26,-1449.72l-1347.58 0 0 2875.9zm2569.62 -1418.32c0,1308.32 483.27,1434.05 1190.44,1434.05 707.18,0 1190.41,-165.04 1190.41,-1434.05 0,-1347.58 -510.72,-1477.21 -1190.41,-1477.21 -660.06,0 -1190.44,129.63 -1190.44,1477.21zm762.19 0c0,-703.22 82.52,-793.6 428.25,-793.6 357.49,0 428.25,125.71 428.25,793.6 0,609 -90.37,750.44 -428.25,750.44 -385.04,0 -428.25,-149.31 -428.25,-750.44zm-2569.6 773.97l0 -1587.19 506.8 0c184.67,0 294.67,90.32 294.67,801.45 0,553.98 -70.74,785.74 -294.67,785.74l-506.8 0z"/>
  <path class="fil1" d="M5196.25 15532.47c0,966.54 267.22,1457.66 994.07,1469.43 581.51,11.82 793.69,-23.58 1037.33,-125.73l0 -593.27c0,0 -385.07,35.36 -797.6,35.36 -396.9,0 -471.49,-133.58 -471.49,-777.98 0,-94.97 1.95,-475.22 5.85,-548.56 29.39,-546.08 170.75,-533.88 461.64,-533.88 404.7,0 797.6,66.79 801.6,66.79l0 -593.32c-337.96,-125.73 -471.49,-157.16 -1037.33,-157.16 -698.53,0 -942.39,432.85 -986.39,1180.69 -5.21,89.21 -7.68,479.64 -7.68,577.64zm9029.04 813.37c0,601.08 515.96,652.16 770.02,644.29 0,0 840.76,-11.76 1245.43,-66.79l0 -636.43 -1009.7 0c-113.92,0 -243.59,3.9 -243.59,-204.28l0 -172.89 1056.86 -35.36 0 -632.53 -1056.86 -43.26 0 -172.84c0,-106.08 0,-220 204.33,-220l1048.96 0 0 -640.38c-459.64,-62.89 -1284.69,-62.89 -1284.69,-62.89 -277.63,0 -730.76,75.31 -730.76,667.93l0 1575.44zm-1049.05 632.53l762.21 0 0 -2875.9 -762.21 0 0 2875.9zm-2400.68 0l1269.01 0c605.04,0 915.42,-235.73 915.42,-880.07 0,-298.57 -196.47,-565.74 -491.12,-612.87 282.89,-23.58 420.38,-353.59 420.38,-597.17 0,-487.17 -251.44,-785.79 -864.31,-785.79l-1249.38 0 0 2875.9zm762.21 -644.35l0 -557.87 467.51 0c153.21,0 192.5,137.49 192.5,282.89 0,172.84 -43.21,274.97 -192.5,274.97l-467.51 0zm0 -1162.91l0 -424.28 428.25 0c86.42,0 176.79,51.07 176.79,223.91 0,110 -58.94,200.38 -176.79,200.38l-428.25 0zm-3009.61 1174.73c0,601.08 515.96,652.16 770.02,644.29 0,0 840.78,-11.76 1245.43,-66.79l0 -636.43 -1009.7 0c-113.91,0 -243.59,3.9 -243.59,-204.28l0 -172.89 1056.86 -35.36 0 -632.53 -1056.86 -43.26 0 -172.84c0,-106.08 0,-220 204.33,-220l1048.96 0 0 -640.38c-459.64,-62.89 -1284.69,-62.89 -1284.69,-62.89 -277.63,0 -730.76,75.31 -730.76,667.93l0 1575.44zm-1049.1 632.53l762.21 0 0 -2875.9 -762.21 0 0 2875.9z"/>
  <g id="_105553488992672">
   <path class="fil1" d="M4127.3 5467.16c-529.74,-141.58 -844.47,-685.84 -702.95,-1215.59 141.58,-529.74 685.9,-844.47 1215.59,-702.89l2593.46 694.87 39.58 10.86 2.19 0.65 3.47 0.95 5.61 1.65 22.53 6.48 5.66 1.66 4.37 1.24 1.18 0.34 5.6 1.73 5.61 1.65 5.6 1.71 5.61 1.65 5.53 1.71 5.55 1.73 5.61 1.71 1 0.29 4.6 1.42 5.55 1.76 5.55 1.71 5.55 1.84 5.53 1.71 5.55 1.82 5.55 1.77 3.18 0.95 2.37 0.76 5.55 1.82 5.53 1.84 16.52 5.42 5.5 1.89 5.31 1.77 0.23 0.06 5.5 1.89 5.42 1.89 5.48 1.89 5.48 1.89 5.48 1.82 5.5 2.02 5.48 1.89 1.89 0.65 3.53 1.24 5.48 1.94 5.37 1.95 5.48 1.89 5.44 2 5.42 1.95 21.71 7.97 5.44 2.06 5.42 2 5.31 2.02 5.44 2.06 10.73 4 5.37 2.06 5.44 2.13 5.37 2.06 5.31 2.13 -175.97 -526.62c-90.26,-269.89 -146.18,-536.83 -160.16,-817.63 -14.34,-287.46 15.1,-575.04 96.1,-877.26 205.88,-768.37 704,-1380.95 1342.77,-1749.7 640.24,-369.65 1420.16,-495.41 2187.71,-289.76 768.48,205.88 1380.88,704 1749.7,1342.77l0 3.82c369.17,639.59 494.95,1418.17 289.76,2183.95 -77.52,289.64 -193.25,551.03 -345.22,791.13 -108.24,171.13 -233.55,327.64 -375.3,472.46l1487.11 398.38c529.82,141.58 844.53,685.9 702.95,1215.64 -141.52,529.75 -685.77,844.47 -1215.59,702.95l-2054.85 -550.58c-236.8,-63.4 -477.61,-24.53 -674.69,89.2 -198.39,114.63 -353.3,303.88 -416.54,539.72l-269.72 1006.41c-63.53,237.31 -25.31,478.3 87.6,675.56l1.66 -0.87c114.55,198.44 303.75,353.35 539.66,416.59l2958.72 792.79c529.75,141.52 844.47,685.84 702.95,1215.59 -141.52,529.8 -685.9,844.53 -1215.57,702.95l-2958.8 -792.79 -31.68 -8.74 -4.02 -1.11 -3.6 -1 -19.58 -5.61 -12.27 -3.6 -7.26 -2.18 -19.4 -5.84 -8.61 -2.66 -10.79 -3.35 -19.29 -6.15 -4.95 -1.53 -4.02 -1.35 -29.37 -9.68 -1.42 -0.53 -17.69 -6.02 -16.87 -5.84 -2.13 -0.82 -18.94 -6.79 -13.27 -4.71 -5.6 -2.13 -18.77 -6.95 -9.73 -3.66 -9.03 -3.55 -18.63 -7.19 -6.19 -2.42 -12.39 -4.95 -18.47 -7.44 -2.77 -1.11 -27.15 -11.39 -6.24 -2.53 -0.65 -0.35 -18.24 -7.86 -14.15 -6.13 -4.08 -1.77 -18.11 -8.08 -10.73 -4.9 -7.32 -3.29 -17.98 -8.39 -7.26 -3.35 -10.68 -5.02 -17.82 -8.55 -3.89 -1.89 -5.66 -2.84 -25.84 -12.74 -0.65 -0.29 -1 -0.53 -25.37 -12.92 -5.48 -2.71 -2.6 -1.42 -17.4 -9.08 -11.56 -6.15 -5.77 -3.06 -17.29 -9.32 -8.19 -4.6 -8.92 -4.9c-17.16,-9.5 -34.21,-19.16 -51.15,-29.02l-1.89 -1 -3.18 -1.89 -23.42 -13.87 -3.9 -2.35 -1.18 -0.71 -16.74 -10.08 -12.27 -7.5 -4.31 -2.71 -16.58 -10.27 -9.19 -5.84 -7.26 -4.6 -16.34 -10.5 -6.08 -3.95 -10.27 -6.73 -16.16 -10.68 -3 -2 -13.1 -8.86 -16.05 -10.86 0 0 -5.55 -3.95 -23.36 -16.23 -2.95 -2 -21.6 -15.52 -4 -2.89 -5.84 -4.26 -21.84 -15.98 -1.47 -1.18 -23.24 -17.4 -3.95 -3 -11.39 -8.74 -15.27 -11.79 -1.06 -0.82 -25.31 -20.06 -2.18 -1.71 -1.73 -1.35 -14.92 -12.1 -10.56 -8.55 -4.35 -3.6 -14.81 -12.34 -7.61 -6.37 -7.15 -6.02 -0.47 0.6 -9.79 13.56 -2.95 4.19 -13.45 18.16 -2.6 3.55 -3.95 5.19 -13.21 17.63 -16.63 21.77 -8.08 10.44 -10.32 13.21 -13.98 17.71 -9.1 11.5 -4.95 6.13 -14.16 17.47 -6.71 8.13 -7.68 9.27 -14.39 17.27 -4.13 4.9 -10.45 12.32 -14.56 17.05 -1.53 1.77 -13.21 15.23 -6.68 7.48 -8.26 9.39 -14.98 16.81 -4.53 5.02 -10.5 11.56 -15.16 16.63 -8.44 9.08 -6.85 7.32 -15.39 16.34 -5.79 6.08 -9.66 10.15 -15.65 16.1 -2.89 3.06 -3.42 3.44 -25.13 25.42 -0.11 0.18 -15.76 15.56 -1.65 1.66 -14.34 14.1 -16.11 15.58 -1.18 1.11 -14.86 14.21 -0.18 0.13 -16.29 15.34 -15.81 14.81 -0.6 0.47 -16.39 15.1 -4.66 4.26 -11.92 10.86 -5.66 5.06 -26.48 23.42 -1.31 1.18 -15.39 13.52 -1.53 1.18 -16.94 14.56 -0.65 0.53 -16.11 13.69 -0.23 0.23 -17.18 14.34 -9.5 7.9 -7.66 6.32 -17.4 14.15 -6.37 5.15 -2.71 2.18 -23.73 18.87 -19.63 15.4 -17.65 13.63 -0.06 0.18 -17.69 13.39 -14.69 11.03 -3.18 2.42 -23.89 17.69 -12.05 8.73 -18.05 13.05 -15.1 10.79 -3.13 2.18 -18.16 12.87 -5.15 3.53 -13.26 9.15 -18.42 12.56 -1.76 1.18 -16.76 11.27 -16.87 11.26 -1.71 1.06 -18.65 12.27 -13.68 8.79 -5.08 3.31 -27.08 17.1 -2.06 1.35 -8.55 5.37 -19 11.74 -6.9 4.19 -2.11 1.29 -29.15 17.58 -3.42 2.06 -2 1.18 -33.05 19.36 1.02 1.65c-748.73,432.3 -1660.92,580.72 -2555.71,341.04l-2593.39 -694.98c-529.75,-141.47 -844.47,-685.79 -702.95,-1215.59 141.52,-529.69 685.9,-844.4 1215.59,-702.89l2593.39 694.87c367.88,98.57 742.18,37.98 1048.81,-139.05l3.9 0c305.28,-176.26 544.32,-470.11 643.06,-838.86l339.22 -1265.8c98.68,-368.57 38.69,-743.05 -137.45,-1049.88l-1.66 0.95c-177.57,-307.52 -470.82,-547.74 -836.97,-646.32l-2595.23 -695.45z"/>
   <path class="fil0" d="M10911.78 2434.57l-1.6 0.89c-114.86,-198.86 -305.99,-354.18 -545.8,-418.43 -240.68,-64.49 -483.25,-26.13 -680.76,87.91 -198.99,114.86 -354.25,305.86 -418.49,545.67 -27.44,102.41 -37.87,191.18 -33.86,271.41 4.31,86.95 25.07,179.81 59.16,281.7l419.43 1254.93 1006.23 -890.66c71.55,-63.42 131.08,-130.84 177.44,-204.17 43.48,-68.79 78.53,-150.31 104.49,-247.47 64.6,-241.17 26.95,-484.03 -86.24,-681.77z"/>
  </g>
 </g>
</svg>
